<?xml version="1.0" encoding="utf-8"?>
<svg version="1.1" id="Layer_1" xmlns="http://www.w3.org/2000/svg" x="0px" y="0px"
     viewBox="0 0 109.3 89.3" style="enable-background:new 0 0 109.3 89.3;" xml:space="preserve">
<style type="text/css">
	.st0{fill:#DBDEE1;}
</style>
    <path class="st0" d="M44.3,12.1l32.3,32.3L44.3,76.8L12,44.4L44.3,12.1z M35.5,44.4l19.1,19.1l19.1-19.1l-19.1-19L35.5,44.4z
	 M53.1,65L32.5,44.4l20.6-20.6L44.3,15L14.9,44.4l29.4,29.4L53.1,65z"/>
    <path class="st0" d="M85.4,32.8l11.7,11.7L85.5,56.2L73.8,44.5L85.4,32.8z M76.7,44.5l8.8,8.8l8.8-8.8l-8.8-8.8L76.7,44.5z"/>
    <path class="st0" d="M32.3,0L0,32.3L-32.3,0L0-32.3L32.3,0z M-10.3-19.1L-29.4,0l19.1,19.1L8.8,0L-10.3-19.1z M0,29.3L29.3,0L0-29.4
	l-8.8,8.8L11.8,0L-8.8,20.6L0,29.3z"/>
    <path class="st0" d="M141.6,0l-32.3,32.3L77,0l32.3-32.3L141.6,0z M99-19.1L79.9,0L99,19.1L118.1,0L99-19.1z M109.3,29.3L138.6,0
	l-29.3-29.4l-8.8,8.8L121.1,0l-20.6,20.6L109.3,29.3z"/>
    <path class="st0" d="M79.8,0L68.1,11.8L56.5,0l11.7-11.6L79.8,0z M68.1-8.8L59.3,0l8.8,8.9L76.9,0L68.1-8.8z"/>
    <path class="st0" d="M32.3,89.3L0,121.6l-32.3-32.3L0,57L32.3,89.3z M-10.3,70.3l-19.1,19.1l19.1,19.1L8.8,89.3L-10.3,70.3z
	 M0,118.7l29.4-29.3L0,59.9l-8.8,8.8l20.6,20.6l-20.6,20.6L0,118.7z"/>
    <path class="st0" d="M141.6,89.3l-32.3,32.3L77,89.3L109.3,57L141.6,89.3z M99,70.3l-19.1,19L99,108.4l19.1-19.1L99,70.3z
	 M109.3,118.7l29.4-29.3L109.4,60l-8.8,8.8l20.6,20.6L100.6,110L109.3,118.7z"/>
    <path class="st0" d="M79.8,89.3l-11.7,11.8L56.5,89.3l11.7-11.6L79.8,89.3z M68.1,80.5l-8.8,8.8l8.8,8.9l8.8-8.8L68.1,80.5z"/>
</svg>
